# xmcd
#
# Track frame offsets:
#	150
#	9431
#	16340
#	29271
#	39720
#	46856
#	57965
#	65955
#	77354
#	85221
#	93681
#	104800
#	116624
#	122054
#	132060
#	140656
#	152439
#	162377
#	172875
#	183724
#
# Disc length: 2496 seconds
#
# Revision: 0
# Processed by: cddbd v1.5.2PL0 Copyright (c) Steve Scherf et al.
# Submitted via: EasyCDDAExtractor 16.0.1.1
#
DISCID=0d09be14
DTITLE=J  E  Mainer - The Legendary J  E  Mainer - Volume 10
DYEAR=1900
DGENRE=Western
TTITLE0=The Rising Sun Blues
TTITLE1=I'm A Good Old Rebel
TTITLE2=Somebody's Waiting For You
TTITLE3=Pallet On The Floor
TTITLE4=Farmer Who Wouldn't Hoe Corn
TTITLE5=Highway Man
TTITLE6=Don't Whip Your Wife On Sunday
TTITLE7=Then I'll Come Back To You
TTITLE8=Black Jack David
TTITLE9=Hold Onto The Plow
TTITLE10=Cherry Tree Caroll
TTITLE11=Al Smith For President
TTITLE12=Dry And Dusty
TTITLE13=Trade It For A Boy
TTITLE14=Way Down In Georgia
TTITLE15=I Never Will Marry
TTITLE16=Knoxville Girl
TTITLE17=Old Man Came A'Courtin
TTITLE18=Farmer And The Devil
TTITLE19=Down Yonder
EXTD=
EXTT0=
EXTT1=
EXTT2=
EXTT3=
EXTT4=
EXTT5=
EXTT6=
EXTT7=
EXTT8=
EXTT9=
EXTT10=
EXTT11=
EXTT12=
EXTT13=
EXTT14=
EXTT15=
EXTT16=
EXTT17=
EXTT18=
EXTT19=
PLAYORDER=
